<svg width="41" height="40" viewBox="0 0 41 40" fill="none" xmlns="http://www.w3.org/2000/svg">
<path d="M37.5024 20.9311C37.3802 20.2944 36.8233 19.834 36.175 19.8336H34.8692L34.7731 19.2582C34.6773 18.6802 34.222 18.2286 33.6432 18.1377C33.5147 18.1174 33.3849 18.1039 33.257 18.0863C33.4785 17.0525 33.2945 15.9731 32.7431 15.071C33.0344 14.3153 32.9801 13.4699 32.5943 12.7577C32.2086 12.0456 31.5302 11.5382 30.7381 11.3693C30.2317 8.65901 27.8738 6.68888 25.1167 6.67227C25.049 6.67227 24.9888 6.68106 24.9246 6.68309C24.484 5.99121 23.7577 5.53202 22.9437 5.43078C22.1298 5.32954 21.3131 5.59681 20.7165 6.15969C19.9649 5.67113 19.0879 5.41066 18.1914 5.40976C16.7471 5.41567 15.3858 6.08608 14.5006 7.22745C13.5177 6.94084 12.4579 7.11682 11.6203 7.70569C10.7828 8.29455 10.2586 9.23236 10.1958 10.2542C9.16339 10.6882 8.49164 11.6986 8.49099 12.8185C8.49311 13.0126 8.51578 13.2059 8.55861 13.3953C7.64563 14.7716 7.40707 16.4881 7.91011 18.0612C7.72888 18.0863 7.5436 18.1086 7.36913 18.1343C6.78734 18.2221 6.32789 18.6739 6.23037 19.2541L6.13435 19.8316H4.82518C4.17793 19.832 3.62172 20.291 3.49842 20.9264L0.537234 36.1293C0.42159 36.7247 0.57841 37.3406 0.964708 37.8082C1.35101 38.2758 1.92626 38.546 2.53277 38.5448H16.6348C17.1947 39.4685 18.8961 39.8972 20.5001 39.8972C22.0872 39.8972 23.7723 39.4786 24.3485 38.5448H38.4674C39.0737 38.546 39.6488 38.2758 40.0351 37.8084C40.4214 37.341 40.5783 36.7253 40.4629 36.13L37.5024 20.9311ZM10.5359 14.0424C9.98684 13.7123 9.7248 13.057 9.89489 12.4393C10.065 11.8216 10.6256 11.3928 11.2662 11.3903C11.7146 11.389 12.1366 11.6021 12.4016 11.9637C12.5456 12.1577 12.7821 12.2602 13.0221 12.2325C13.2621 12.2048 13.4691 12.0511 13.5651 11.8294C13.6612 11.6077 13.6316 11.3517 13.4876 11.1577C13.0284 10.544 12.3326 10.1514 11.5698 10.0757C11.7715 9.12867 12.6066 8.4507 13.5748 8.44804C13.6574 8.45222 13.7395 8.46125 13.821 8.47509C13.7666 8.61372 13.7192 8.75501 13.679 8.8984C13.5948 9.25636 13.8121 9.61596 14.1682 9.70792C14.5242 9.79987 14.8885 9.59046 14.9882 9.23652C15.0651 8.93931 15.1832 8.65433 15.3391 8.38988C15.939 7.38497 17.0211 6.76744 18.1914 6.76221C18.8284 6.76503 19.4507 6.95299 19.9828 7.30319C19.8814 7.58795 19.8277 7.88748 19.8238 8.18972C19.8238 8.56319 20.1266 8.86594 20.5001 8.86594C20.8735 8.86594 21.1763 8.56319 21.1763 8.18972C21.1763 7.40413 21.8131 6.76728 22.5987 6.76728C23.3843 6.76728 24.0212 7.40413 24.0212 8.18972C24.0212 8.56319 24.3239 8.86594 24.6974 8.86594C25.0709 8.86594 25.3736 8.56319 25.3736 8.18972C25.3736 8.13765 25.3608 8.08829 25.3581 8.03622C27.2943 8.15568 28.9225 9.53204 29.3627 11.4214C29.0472 11.5132 28.7508 11.661 28.4876 11.8576C28.2944 12.0025 28.1931 12.2396 28.222 12.4794C28.2509 12.7193 28.4056 12.9255 28.6277 13.0204C28.8499 13.1153 29.1058 13.0845 29.2991 12.9395C29.8395 12.5394 30.5859 12.5713 31.0902 13.0161C31.5945 13.4608 31.7194 14.1975 31.39 14.7836C31.2428 15.0424 31.0191 15.2493 30.7496 15.376C30.467 15.5128 30.3158 15.8262 30.3845 16.1325C30.4531 16.4389 30.7237 16.6577 31.0377 16.6608C31.1368 16.6609 31.2348 16.639 31.3244 16.5965C31.5036 16.5097 31.673 16.4038 31.8295 16.2807C32.1791 17.2745 31.9599 18.3798 31.2575 19.1648L31.2412 19.1818C30.3603 20.1361 28.9549 20.394 27.7925 19.8147C27.6786 19.7546 27.5692 19.6863 27.4652 19.6105C27.9633 18.9122 28.0321 17.9949 27.6437 17.2302C27.535 17.0143 27.3194 16.8728 27.0781 16.8591C26.8368 16.8453 26.6064 16.9613 26.4739 17.1634C26.3413 17.3654 26.3266 17.6229 26.4353 17.8388C26.6576 18.2857 26.519 18.8281 26.1093 19.1135C25.8688 19.2736 25.5717 19.3243 25.2916 19.2528C25.0116 19.1814 24.775 18.9946 24.6406 18.7388C24.5325 18.5227 24.3173 18.3807 24.0761 18.3663C23.8349 18.3519 23.6043 18.4672 23.4712 18.6689C23.3381 18.8706 23.3227 19.1279 23.4308 19.344C23.8274 20.1446 24.6445 20.6502 25.5379 20.6478C25.8288 20.6458 26.1167 20.5892 26.3866 20.4808C26.6281 20.6922 26.8942 20.8739 27.1791 21.0218C28.1429 21.5213 29.2636 21.6249 30.3026 21.3105C29.6344 22.223 28.6342 22.8362 27.5179 23.018C27.1706 23.0745 26.9247 23.3879 26.9525 23.7387C26.9802 24.0894 27.2722 24.3603 27.6241 24.3616C27.6601 24.3616 27.696 24.3589 27.7316 24.3535C28.1434 24.2822 28.5458 24.1647 28.9312 24.0032C29.1396 24.3715 29.3086 24.7607 29.4357 25.1643C29.459 25.2348 29.4708 25.3085 29.4709 25.3827C29.4707 25.675 29.2961 25.939 29.0273 26.0535C28.7162 26.1739 28.3631 26.0789 28.1543 25.8189C27.6305 25.2039 26.9448 24.7482 26.1749 24.5036C24.7136 24.0141 24.1497 23.5765 23.9103 23.1005C24.2611 23.0567 24.6078 22.9843 24.9469 22.8841C25.1779 22.8131 25.3534 22.6242 25.4074 22.3887C25.4613 22.1531 25.3856 21.9067 25.2086 21.7422C25.0316 21.5777 24.7803 21.5201 24.5493 21.5911C24.1699 21.7076 23.7782 21.7795 23.3821 21.8055C22.6191 21.8651 21.8526 21.7495 21.1411 21.4674C20.874 21.3632 20.5702 21.4388 20.3831 21.6561C19.3985 22.787 17.7134 22.9792 16.4995 22.0991C15.2855 21.2189 14.9443 19.5576 15.7131 18.2702C15.8376 18.0623 15.8418 17.8038 15.724 17.592C15.6062 17.3802 15.3844 17.2473 15.1421 17.2434C14.8998 17.2395 14.6738 17.3651 14.5493 17.573C14.388 17.8476 14.2582 18.1396 14.1625 18.4433C13.63 18.4153 13.2101 17.9797 13.2016 17.4466V17.4297C13.2012 17.2512 13.1296 17.0803 13.0026 16.955C12.8756 16.8296 12.7038 16.7602 12.5253 16.7622C12.1503 16.7659 11.8484 17.0715 11.8491 17.4466C11.8521 18.6458 12.7565 19.651 13.9488 19.7802C13.9512 20.0069 13.9718 20.233 14.0103 20.4564C12.5005 20.7831 10.9344 20.2404 9.95055 19.0495C8.96664 17.8585 8.72917 16.2182 9.33492 14.7971C9.48621 14.9502 9.65508 15.0848 9.83803 15.1981C10.1575 15.3852 10.568 15.2807 10.7591 14.9636C10.9501 14.6465 10.8506 14.2347 10.5359 14.0397V14.0424ZM7.5605 19.4746C7.87224 19.4286 8.19413 19.388 8.51398 19.3461C9.76427 21.3441 12.1555 22.3142 14.4445 21.7521C15.0595 22.9194 16.1833 23.7334 17.4842 23.9539C18.785 24.1743 20.1143 23.7761 21.0796 22.8766C21.5391 23.0137 22.0124 23.0994 22.4909 23.1323C22.8175 24.3711 23.7615 25.1217 25.7449 25.7864C26.2795 25.9541 26.7565 26.2682 27.1217 26.6933C27.5276 27.176 28.1247 27.4565 28.7554 27.4608C29.0313 27.4607 29.3042 27.405 29.5581 27.2971C30.3246 26.9695 30.8219 26.2163 30.822 25.3827C30.8226 25.1653 30.7879 24.9493 30.7192 24.743C30.5671 24.2652 30.3668 23.8042 30.1214 23.3669C31.2713 22.5403 32.0723 21.3152 32.3685 19.9303C32.5125 19.7592 32.6427 19.577 32.758 19.3853C32.9845 19.4144 33.2111 19.4401 33.4389 19.4779L35.8801 34.1615C31.1083 32.5681 25.9481 32.5681 21.1763 34.1615V25.6965C21.1763 25.323 20.8735 25.0203 20.5001 25.0203C20.1266 25.0203 19.8238 25.323 19.8238 25.6965V34.1642C15.0526 32.5693 9.89242 32.5674 5.12001 34.1588L7.5605 19.4746ZM2.00599 36.9435C1.87822 36.7891 1.82613 36.5857 1.86399 36.389L4.82518 21.1861H5.90714L3.78514 33.939C3.71051 34.4032 3.88142 34.8729 4.2369 35.1806C4.59239 35.4883 5.08179 35.5901 5.53048 35.4497C9.13544 34.2818 12.976 34.0381 16.6997 34.741L16.4982 37.1923H2.53277C2.32877 37.1925 2.13545 37.1011 2.00599 36.9435ZM20.5001 38.5448C18.871 38.5448 17.9365 38.0633 17.7992 37.8489L18.0318 35.0426C18.7754 35.2277 19.5031 35.4717 20.2079 35.7723C20.2991 35.8162 20.3989 35.8393 20.5001 35.8399C20.6015 35.8397 20.7016 35.8166 20.7929 35.7723C21.4973 35.47 22.2248 35.2244 22.9683 35.0379L23.2009 37.8483C23.0636 38.0633 22.1291 38.5448 20.5001 38.5448ZM38.9941 36.9435C38.8647 37.1011 38.6714 37.1925 38.4674 37.1923H24.504L24.3011 34.7363C28.0268 34.0348 31.8691 34.2806 35.4751 35.451C35.9236 35.5896 36.412 35.4864 36.7661 35.1781C37.1202 34.8698 37.2898 34.4004 37.2143 33.937L35.0943 21.1868H36.1763L39.1382 36.3883C39.1757 36.5856 39.1228 36.7893 38.9941 36.9435Z" fill="#2E8B57"/>
<path d="M18.2592 15.3401C17.9823 15.5906 17.9608 16.018 18.2111 16.295C18.7848 16.9283 19.5429 17.3655 20.3784 17.5446C20 18.0779 19.3864 18.3943 18.7325 18.3933C18.359 18.3933 18.0563 18.6961 18.0563 19.0695C18.0563 19.443 18.359 19.7457 18.7325 19.7457C20.1324 19.7513 21.3885 18.8867 21.883 17.5771C23.5645 17.2984 24.8957 16.0042 25.2216 14.3312C25.2719 14.0919 25.1891 13.8441 25.0051 13.6831C24.8211 13.522 24.5645 13.4729 24.334 13.5546C24.1035 13.6363 23.9351 13.836 23.8935 14.077C23.7609 14.7744 23.3584 15.3914 22.7736 15.7939C21.6486 16.5516 20.1397 16.3796 19.214 15.3882C18.9635 15.1113 18.5361 15.0898 18.2592 15.3401Z" fill="#2E8B57"/>
<path d="M15.9018 14.6064C16.2753 14.6064 16.578 14.3037 16.578 13.9302C16.578 13.4639 16.7633 13.0167 17.093 12.687C17.4227 12.3573 17.8699 12.172 18.3362 12.172C18.7097 12.172 19.0124 11.8693 19.0124 11.4958C19.0124 11.1223 18.7097 10.8196 18.3362 10.8196C16.619 10.8214 15.2274 12.213 15.2256 13.9302C15.2256 14.1096 15.2968 14.2816 15.4236 14.4084C15.5505 14.5352 15.7225 14.6064 15.9018 14.6064Z" fill="#2E8B57"/>
<path d="M21.1762 1.35245V0.676225C21.1762 0.302756 20.8734 0 20.5 0C20.1265 0 19.8237 0.302756 19.8237 0.676225V1.35245C19.8237 1.72592 20.1265 2.02867 20.5 2.02867C20.8734 2.02867 21.1762 1.72592 21.1762 1.35245Z" fill="#2E8B57"/>
<path d="M31.5968 4.85258L30.9206 5.5288C30.7448 5.69859 30.6743 5.95001 30.7362 6.18644C30.7981 6.42286 30.9827 6.6075 31.2191 6.66939C31.4555 6.73128 31.707 6.66077 31.8768 6.48499L32.553 5.80876C32.7288 5.63898 32.7993 5.38755 32.7374 5.15113C32.6755 4.9147 32.4909 4.73006 32.2544 4.66817C32.018 4.60629 31.7666 4.67679 31.5968 4.85258Z" fill="#2E8B57"/>
<path d="M9.60125 6.68312C9.87472 6.68306 10.1212 6.5183 10.2259 6.26565C10.3305 6.01301 10.2727 5.7222 10.0793 5.5288L9.40312 4.85258C9.23334 4.67679 8.98191 4.60629 8.74549 4.66817C8.50906 4.73006 8.32442 4.9147 8.26253 5.15113C8.20065 5.38755 8.27115 5.63898 8.44694 5.80876L9.12316 6.48499C9.24995 6.61181 9.42192 6.68308 9.60125 6.68312Z" fill="#2E8B57"/>
<path d="M14.8068 3.83757C14.8957 3.83737 14.9836 3.81992 15.0658 3.78617C15.2315 3.71752 15.3632 3.58581 15.4318 3.42005C15.5004 3.25429 15.5004 3.06806 15.4316 2.90235L14.6547 1.02785C14.5657 0.799542 14.3601 0.637246 14.1174 0.603634C13.8746 0.570021 13.6327 0.670352 13.485 0.865884C13.3373 1.06142 13.307 1.32155 13.4057 1.54584L14.182 3.42033C14.2867 3.67297 14.5333 3.83763 14.8068 3.83757Z" fill="#2E8B57"/>
<path d="M27.2286 0.66201C26.8837 0.519328 26.4884 0.683069 26.3454 1.02785L25.5684 2.90234C25.4995 3.06813 25.4993 3.25453 25.5679 3.42046C25.6366 3.58638 25.7684 3.71819 25.9343 3.78684C26.0165 3.82059 26.1044 3.83805 26.1933 3.83824C26.4668 3.83831 26.7134 3.67364 26.8181 3.42101L27.5944 1.54651C27.6634 1.38072 27.6635 1.19432 27.5949 1.0284C27.5263 0.862477 27.3945 0.73066 27.2286 0.66201Z" fill="#2E8B57"/>
<path d="M34.2443 11.8894C34.3332 11.8892 34.4212 11.8715 34.5033 11.8373L36.3771 11.061C36.6003 10.9686 36.7573 10.7641 36.7889 10.5246C36.8205 10.285 36.7219 10.0468 36.5302 9.89973C36.3386 9.75261 36.083 9.71891 35.8598 9.81131L33.9853 10.5876C33.6862 10.7105 33.5159 11.0279 33.579 11.3451C33.6421 11.6622 33.9209 11.8903 34.2443 11.8894Z" fill="#2E8B57"/>
<path d="M6.49691 11.8373C6.842 11.9804 7.2377 11.8166 7.38074 11.4715C7.52378 11.1264 7.35999 10.7307 7.0149 10.5877L5.14041 9.81136C4.79532 9.66851 4.39977 9.83245 4.25692 10.1775C4.11407 10.5226 4.27801 10.9182 4.6231 11.061L6.49691 11.8373Z" fill="#2E8B57"/>
</svg>
