<svg width="41" height="38" viewBox="0 0 41 38" fill="none" xmlns="http://www.w3.org/2000/svg">
<path d="M39.285 7.05779H38.5462C38.5251 5.88897 37.5684 4.94445 36.3947 4.94445H34.6067V2.15271C34.6067 0.965879 33.6408 0 32.454 0H8.54594C7.35881 0 6.39324 0.965879 6.39324 2.15271V4.94445H4.60522C3.43151 4.94445 2.47479 5.88897 2.45373 7.05779H1.7149C1.04504 7.05779 0.5 7.60283 0.5 8.27269V14.5312C0.5 15.2011 1.04504 15.7461 1.7149 15.7461H4.36474C5.0346 15.7461 5.57964 15.2011 5.57964 14.5312V8.27269C5.57964 7.60283 5.0346 7.05779 4.36474 7.05779H3.62896C3.64971 6.53655 4.07909 6.11846 4.60522 6.11846H6.39324V27.8991C6.39324 28.2235 6.65599 28.4863 6.98039 28.4863C7.30449 28.4863 7.56755 28.2235 7.56755 27.8991V23.0575C7.86113 23.2083 8.19377 23.2937 8.54594 23.2937H32.454C32.8061 23.2937 33.1388 23.2083 33.4324 23.0575V32.5359C33.4324 33.0755 32.9935 33.5143 32.454 33.5143H8.54594C8.00639 33.5143 7.56755 33.0755 7.56755 32.5359V30.6127C7.56755 30.2886 7.30449 30.0256 6.98039 30.0256C6.65599 30.0256 6.39324 30.2886 6.39324 30.6127V32.5359C6.39324 33.7228 7.35881 34.6884 8.54594 34.6884H9.1566V36.0531C9.1566 36.9595 9.8939 37.6971 10.8006 37.6971H13.4397C14.3461 37.6971 15.0834 36.9595 15.0834 36.0531V34.6884H25.9165V36.0531C25.9165 36.9595 26.6538 37.6971 27.5602 37.6971H30.1993C31.106 37.6971 31.8433 36.9595 31.8433 36.0531V34.6884H32.454C33.6411 34.6884 34.6067 33.7228 34.6067 32.5359V6.11846H36.3947C36.9208 6.11846 37.3502 6.53655 37.3713 7.05779H36.6355C35.9656 7.05779 35.4203 7.60283 35.4203 8.27269V14.5312C35.4203 15.2011 35.9656 15.7461 36.6355 15.7461H39.285C39.9549 15.7461 40.4999 15.2011 40.4999 14.5312V8.27269C40.4999 7.60283 39.9549 7.05779 39.285 7.05779ZM4.36474 8.2318C4.38732 8.2318 4.40533 8.25011 4.40533 8.27269V14.5312C4.40533 14.5538 4.38702 14.5721 4.36474 14.5721H1.7149C1.69232 14.5721 1.67401 14.5538 1.67401 14.5312V8.27269C1.67401 8.25011 1.69232 8.2318 1.7149 8.2318H4.36474ZM13.9094 36.0531C13.9094 36.3119 13.6985 36.5228 13.4397 36.5228H10.8006C10.5415 36.5228 10.3309 36.3119 10.3309 36.0531V34.6884H13.9091V36.0531H13.9094ZM30.669 36.0531C30.669 36.3119 30.4584 36.5228 30.1993 36.5228H27.5602C27.3014 36.5228 27.0905 36.3119 27.0905 36.0531V34.6884H30.669V36.0531ZM33.4324 7.01201H9.72361C9.39952 7.01201 9.13676 7.27477 9.13676 7.59917C9.13676 7.92326 9.39952 8.18633 9.72361 8.18633H33.4327V19.3075H29.5542C29.2298 19.3075 28.967 19.5703 28.967 19.8947C28.967 20.2191 29.2298 20.4818 29.5542 20.4818H33.4327V21.1413C33.4327 21.6806 32.9938 22.1197 32.4543 22.1197H8.54594C8.00639 22.1197 7.56755 21.6806 7.56755 21.1413V20.4818H26.8143C27.1387 20.4818 27.4015 20.2191 27.4015 19.8947C27.4015 19.5703 27.1387 19.3075 26.8143 19.3075H21.0401L26.5791 14.6774C26.8272 14.4699 26.8601 14.1003 26.6526 13.8519C26.4451 13.6038 26.0755 13.5705 25.8274 13.7784L19.213 19.3075H16.692L22.2306 14.6774C22.479 14.4699 22.512 14.1003 22.3045 13.8522C22.0969 13.6038 21.7274 13.5705 21.479 13.7784L14.8649 19.3078H7.56755V5.13335H33.4324V7.01201ZM33.4324 3.95904H7.56755V2.15271C7.56755 1.61316 8.00639 1.17431 8.54594 1.17431H32.454C32.9935 1.17431 33.4324 1.61316 33.4324 2.15271V3.95904ZM39.3259 14.5312C39.3259 14.5538 39.3076 14.5721 39.285 14.5721H36.6355C36.6129 14.5721 36.5946 14.5538 36.5946 14.5312V8.27269C36.5946 8.25011 36.6129 8.2318 36.6355 8.2318H39.285C39.3076 8.2318 39.3259 8.25011 39.3259 8.27269V14.5312Z" fill="#2E8B57"/>
<path d="M15.0011 29.4778C15.5406 29.4778 15.9795 29.0386 15.9795 28.4991V27.5598C15.9795 26.2866 14.9437 25.2508 13.6702 25.2508H10.0695C9.52991 25.2508 9.09106 25.6896 9.09106 26.2292V27.1685C9.09106 28.4417 10.1268 29.4778 11.4003 29.4778H15.0011ZM10.2651 27.1685V26.4248H13.6702C14.2961 26.4248 14.8052 26.9341 14.8052 27.5598V28.3035H11.4003C10.7744 28.3035 10.2651 27.7941 10.2651 27.1685Z" fill="#2E8B57"/>
<path d="M29.5997 29.4778C30.8732 29.4778 31.9089 28.4417 31.9089 27.1685V26.2292C31.9089 25.6896 31.4701 25.2508 30.9305 25.2508H27.3298C26.0566 25.2508 25.0205 26.2866 25.0205 27.5598V28.4991C25.0205 29.0386 25.4594 29.4778 25.9989 29.4778H29.5997ZM26.1945 27.5598C26.1945 26.9338 26.7039 26.4248 27.3298 26.4248H30.7346V27.1685C30.7346 27.7944 30.2256 28.3035 29.5997 28.3035H26.1945V27.5598Z" fill="#2E8B57"/>
<path d="M23.0916 32.6348C23.5063 32.6348 23.8435 32.2976 23.8435 31.8829V30.3341C23.8435 29.9194 23.5063 29.5822 23.0916 29.5822H17.9084C17.4937 29.5822 17.1565 29.9194 17.1565 30.3341V31.8829C17.1565 32.2976 17.4937 32.6348 17.9084 32.6348H23.0916ZM18.3305 30.7562H22.6695V31.4608H18.3305V30.7562Z" fill="#2E8B57"/>
</svg>
