<svg width="41" height="40" viewBox="0 0 41 40" fill="none" xmlns="http://www.w3.org/2000/svg">
<path d="M28.8252 13.4813L28.3972 12.0726C27.8536 10.4725 26.1157 9.61605 24.5155 10.1597C23.6153 10.4655 22.9084 11.1725 22.6026 12.0726L22.1746 13.4813C21.8144 14.6693 21.7388 15.9254 21.9539 17.148C22.1501 18.1773 22.8036 19.0616 23.7299 19.5513L23.2506 30.2666C23.1864 30.8647 23.3804 31.4618 23.7839 31.908C24.6517 32.8571 26.1247 32.9231 27.0738 32.0554C27.1252 32.0085 27.1743 31.9593 27.2212 31.908C27.6157 31.4745 27.8094 30.8949 27.7546 30.3113L27.2726 19.55C28.1977 19.06 28.8501 18.1763 29.0459 17.148C29.261 15.9254 29.1854 14.6693 28.8252 13.4813ZM27.7326 16.916C27.5882 17.6555 27.0612 18.2622 26.3492 18.5086C26.079 18.6102 25.9049 18.8742 25.9179 19.1626L26.4246 30.4166C26.4479 30.6374 26.3751 30.8575 26.2246 31.0206C25.8232 31.418 25.1767 31.418 24.7752 31.0206C24.6172 30.8443 24.5455 30.607 24.5792 30.3726L25.0819 19.1626C25.0949 18.8742 24.9208 18.6102 24.6506 18.5086C23.9386 18.2622 23.4116 17.6555 23.2672 16.916C23.0889 15.901 23.1517 14.8582 23.4506 13.872L23.8786 12.4626C24.2097 11.5672 25.2041 11.1098 26.0996 11.441C26.573 11.616 26.9462 11.9893 27.1212 12.4626L27.5492 13.872C27.8477 14.8583 27.9106 15.901 27.7326 16.916Z" fill="#2E8B57"/>
<path d="M18.4999 10C18.1318 10 17.8333 10.2985 17.8333 10.6667V16.3907L16.0286 18.1953C15.8951 18.3283 15.8241 18.5117 15.8333 18.7L16.4166 30.3667C16.4305 30.6182 16.3392 30.8643 16.1646 31.046C15.7997 31.4142 15.2053 31.4168 14.8371 31.0518C14.8351 31.0499 14.8332 31.0479 14.8313 31.046C14.6566 30.8643 14.5653 30.6182 14.5793 30.3667L15.1666 18.7C15.1759 18.5118 15.1052 18.3285 14.9719 18.1953L13.1666 16.3907V10.6667C13.1666 10.2985 12.8681 10 12.4999 10C12.1318 10 11.8333 10.2985 11.8333 10.6667V16.6667C11.8333 16.8435 11.9036 17.013 12.0286 17.138L13.8193 18.9293L13.2506 30.302C13.1901 31.5443 14.1481 32.6004 15.3903 32.6609C16.6326 32.7214 17.6888 31.7634 17.7493 30.5212C17.7528 30.4482 17.7528 30.3751 17.7493 30.3021L17.1806 18.9294L18.9713 17.1381C19.0963 17.0131 19.1666 16.8436 19.1666 16.6668V10.6668C19.1666 10.2985 18.8681 10 18.4999 10Z" fill="#2E8B57"/>
<path d="M14.4999 10C14.1318 10 13.8333 10.2985 13.8333 10.6667V16C13.8333 16.3682 14.1318 16.6667 14.4999 16.6667C14.8681 16.6667 15.1666 16.3682 15.1666 16V10.6667C15.1666 10.2985 14.8681 10 14.4999 10Z" fill="#2E8B57"/>
<path d="M16.4999 10C16.1318 10 15.8333 10.2985 15.8333 10.6667V16C15.8333 16.3682 16.1318 16.6667 16.4999 16.6667C16.8681 16.6667 17.1666 16.3682 17.1666 16V10.6667C17.1666 10.2985 16.8681 10 16.4999 10Z" fill="#2E8B57"/>
<path d="M20.5 0C9.45433 0 0.5 8.95433 0.5 20C0.5 31.0457 9.45433 40 20.5 40C31.5457 40 40.5 31.0457 40.5 20C40.4875 8.9595 31.5405 0.0125 20.5 0ZM20.5 38.6667C10.1907 38.6667 1.83333 30.3093 1.83333 20C1.83333 9.69067 10.1907 1.33333 20.5 1.33333C30.8093 1.33333 39.1667 9.69067 39.1667 20C39.1549 30.3044 30.8044 38.6549 20.5 38.6667Z" fill="#2E8B57"/>
<path d="M22.6641 32.5143C22.6284 32.1479 22.3023 31.8798 21.9358 31.9156C21.9272 31.9164 21.9186 31.9174 21.91 31.9186L21.9127 31.9179C20.9741 32.0269 20.026 32.0269 19.0874 31.9179C18.7215 31.875 18.3903 32.1367 18.3474 32.5026C18.3045 32.8684 18.5662 33.1996 18.932 33.2426C19.973 33.3641 21.0245 33.3641 22.0654 33.2426C22.4318 33.2069 22.6999 32.8808 22.6641 32.5143Z" fill="#2E8B57"/>
<path d="M30.7001 11.4093C30.4635 11.1272 30.043 11.0903 29.7609 11.3269C29.76 11.3277 29.7591 11.3285 29.7581 11.3293C29.4767 11.5666 29.4409 11.9871 29.6781 12.2686C33.6977 17.0403 33.3902 24.096 28.9708 28.5C28.7099 28.7599 28.7092 29.1821 28.9691 29.443C29.229 29.7038 29.6513 29.7045 29.9121 29.4446C34.8235 24.5519 35.166 16.7117 30.7001 11.4093Z" fill="#2E8B57"/>
<path d="M16.0326 8.8121C16.0322 8.8121 16.0318 8.81201 16.0314 8.81201C16.0307 8.81201 16.03 8.8121 16.0293 8.8121H16.0326Z" fill="#2E8B57"/>
<path d="M23.6447 7.03938C21.0393 6.41496 18.3068 6.58279 15.7974 7.52137C15.4527 7.65096 15.2785 8.03546 15.4081 8.38004C15.5057 8.63979 15.7541 8.81171 16.0315 8.81196C16.1112 8.81154 16.1902 8.79696 16.2647 8.76871C18.5246 7.92363 20.9852 7.77271 23.3314 8.33538C23.6893 8.42188 24.0496 8.20196 24.1361 7.84404C24.2226 7.48613 24.0027 7.12588 23.6447 7.03938Z" fill="#2E8B57"/>
<path d="M11.9994 28.4667C9.75196 26.2231 8.49238 23.1757 8.50004 20C8.49346 17.4628 9.29713 14.9898 10.794 12.9413C11.0153 12.647 10.956 12.2291 10.6617 12.0078C10.3674 11.7866 9.94946 11.8458 9.72821 12.1402C9.72429 12.1454 9.72046 12.1507 9.71671 12.156C5.86229 17.455 6.42946 24.7693 11.0547 29.4107C11.3154 29.6715 11.7382 29.6717 11.999 29.411C12.2599 29.1503 12.26 28.7275 11.9994 28.4667Z" fill="#2E8B57"/>
</svg>
