<svg width="41" height="40" viewBox="0 0 41 40" fill="none" xmlns="http://www.w3.org/2000/svg">
<path d="M20.5 0C9.45469 0 0.5 8.95398 0.5 20C0.5 31.0453 9.45469 40 20.5 40C31.546 40 40.5 31.0453 40.5 20C40.5 8.95398 31.546 0 20.5 0ZM20.5 38C10.5747 38 2.5 29.9253 2.5 20C2.5 10.0747 10.5747 2 20.5 2C30.4253 2 38.5 10.0747 38.5 20C38.5 29.9253 30.4253 38 20.5 38Z" fill="#2E8B57"/>
<path d="M29.8752 25.368C29.7499 25.162 29.5519 25.0153 29.2812 24.9313C29.0099 24.8493 28.7599 24.8593 28.5312 24.9627C28.2599 25.088 28.0833 25.3066 27.9999 25.6187C27.6033 26.8687 26.7813 27.8807 25.5313 28.65C24.2599 29.4427 22.7813 29.8373 21.0939 29.8373C19.0313 29.8373 17.3226 29.2553 15.9686 28.0873C14.5099 26.8587 13.5826 25.056 13.1873 22.6813H24.3746C24.6659 22.6813 24.9159 22.5873 25.1246 22.4C25.312 22.2553 25.4159 22.068 25.4373 21.8373C25.458 21.6087 25.3952 21.4213 25.2499 21.2747C25.0833 21.1087 24.8439 21.0247 24.5313 21.0247H12.9999V19.8994V19.118H24.7186C25.0099 19.118 25.2599 19.024 25.4686 18.8366C25.6559 18.692 25.7599 18.5046 25.7813 18.274C25.802 18.0453 25.7392 17.858 25.5939 17.7113C25.4273 17.5453 25.1879 17.4613 24.8752 17.4613H13.1246C13.562 15.2113 14.5093 13.442 15.9686 12.1487C17.4059 10.8987 19.1139 10.2734 21.0939 10.2734C22.8226 10.2734 24.2599 10.6173 25.4066 11.3047C26.5726 12.0134 27.3645 13.0547 27.7819 14.43C27.8652 14.7427 28.0419 14.9827 28.3132 15.1487C28.5212 15.274 28.7605 15.3166 29.0319 15.274C29.2819 15.2327 29.4692 15.118 29.5945 14.93C29.7605 14.7013 29.8132 14.442 29.7505 14.1487C29.4166 12.5666 28.6145 11.2853 27.3445 10.3047C25.7819 9.13867 23.6979 8.55469 21.0945 8.55469C18.5525 8.55469 16.3759 9.37867 14.5632 11.0234C12.7919 12.6287 11.6772 14.7734 11.2192 17.4607H9.53195C9.2193 17.4607 8.9793 17.5447 8.81328 17.7107C8.64664 17.8573 8.56328 18.0447 8.56328 18.2734C8.54195 18.5041 8.60461 18.6913 8.75063 18.836C8.89594 19.0234 9.11461 19.1173 9.40664 19.1173H11.0627V19.8987V21.024H9.53133C9.21867 21.024 8.97867 21.108 8.81266 21.274C8.64602 21.4206 8.56266 21.608 8.56266 21.8366C8.54133 22.0673 8.60399 22.2546 8.75 22.3993C8.89531 22.5866 9.11399 22.6806 9.40602 22.6806H11.2187C11.656 25.4933 12.75 27.6806 14.5 29.2433C16.208 30.7859 18.406 31.5559 21.094 31.5559C23.6353 31.5559 25.708 30.9426 27.3127 29.712C28.5 28.7959 29.3647 27.6299 29.9066 26.212C30.0099 25.8993 30.0006 25.618 29.8752 25.368Z" fill="#2E8B57"/>
</svg>
