<svg width="41" height="40" viewBox="0 0 41 40" fill="none" xmlns="http://www.w3.org/2000/svg">
<path d="M40.3371 16.7468L33.6421 8.04991C33.3943 7.72826 32.9423 7.64891 32.5996 7.86681L28.2771 10.6158H22.6396C22.5667 10.6158 22.4941 10.6314 22.4239 10.6518L18.0528 11.9101L13.5173 10.6695L9.11027 7.86681C8.77336 7.65257 8.32963 7.7252 8.07908 8.03587L0.673995 17.2082C0.407882 17.5378 0.451827 18.0191 0.772872 18.2953L4.6541 21.6354L8.13615 26.3278C7.11778 27.4127 7.13761 29.1238 8.19718 30.1837C8.66685 30.653 9.26408 30.9182 9.8784 30.9799C9.85703 31.1191 9.84605 31.2603 9.84605 31.4038C9.84605 32.1441 10.1344 32.8402 10.6578 33.3636C11.1815 33.8873 11.8776 34.1757 12.618 34.1757C12.628 34.1757 12.6378 34.1751 12.6476 34.1748C12.6473 34.1937 12.6463 34.2123 12.6463 34.2312C12.6463 34.9716 12.9347 35.6677 13.4581 36.1914C13.9818 36.7148 14.6779 37.0031 15.4183 37.0031C15.5644 37.0031 15.7091 36.9912 15.851 36.9693C15.9111 37.5857 16.1769 38.1857 16.6481 38.6569C17.1883 39.1974 17.8981 39.4674 18.6079 39.4674C19.3178 39.4674 20.0276 39.1974 20.5681 38.6569L20.992 38.233L21.1699 38.3764C21.7058 38.8955 22.4016 39.1549 23.0974 39.1549C23.8072 39.1549 24.5171 38.8849 25.0572 38.3444C25.6087 37.7929 25.8788 37.0651 25.8675 36.3409C26.5913 36.3519 27.3195 36.0821 27.8709 35.531C28.4218 34.9798 28.6919 34.2526 28.6812 33.5287C29.4353 33.5406 30.1506 33.251 30.6844 32.7173C31.2358 32.1658 31.5059 31.438 31.4946 30.7138C32.2191 30.7248 32.9466 30.455 33.4981 29.9035C34.4392 28.9624 34.5604 27.5076 33.8625 26.4337L36.4049 21.109L40.2272 17.8198C40.5431 17.5479 40.5913 17.0767 40.3371 16.7468ZM8.85942 9.56633L12.0284 11.5814L5.13475 19.9798L2.3723 17.6022L8.85942 9.56633ZM9.3065 27.3727L10.2629 26.4163C10.2919 26.3873 10.3224 26.3598 10.3536 26.3342C10.5406 26.1816 10.7671 26.0907 11.0069 26.069C11.0136 26.0684 11.0207 26.0684 11.0274 26.0681C11.0616 26.0653 11.0957 26.0635 11.1302 26.0638C11.458 26.0684 11.7626 26.2024 11.9884 26.4407C12.4315 26.9092 12.4077 27.6745 11.9353 28.1469L11.0079 29.0744C10.5388 29.5434 9.77555 29.5434 9.3065 29.0744C8.83744 28.605 8.83744 27.8418 9.3065 27.3727ZM11.7671 32.2543C11.5398 32.0273 11.4147 31.7251 11.4147 31.4038C11.4147 31.0824 11.5398 30.7803 11.7671 30.553L13.6217 28.6984C13.9769 28.3432 14.5354 28.2458 14.9895 28.4622C15.4576 28.6853 15.721 29.1934 15.6523 29.7046C15.6157 29.9774 15.4887 30.2343 15.294 30.4294L13.4688 32.2543C13.2414 32.4817 12.9393 32.6068 12.618 32.6068C12.2966 32.6068 11.9945 32.4817 11.7671 32.2543ZM14.5674 35.0818C14.3401 34.8547 14.2149 34.5526 14.2149 34.2312C14.2149 33.9099 14.3401 33.6078 14.5674 33.3804L16.4217 31.5259C16.8016 31.1462 17.411 31.0644 17.8761 31.3351C18.3009 31.5823 18.5234 32.0675 18.4505 32.5509C18.4105 32.8167 18.2842 33.0667 18.094 33.2568L16.2691 35.0818C16.0417 35.3091 15.7396 35.4342 15.4183 35.4342C15.0969 35.4342 14.7948 35.3091 14.5674 35.0818ZM17.7571 37.5476C17.2881 37.0785 17.2881 36.3153 17.7571 35.8462L18.7135 34.8898C18.7425 34.8608 18.7727 34.8336 18.8039 34.808C18.8048 34.8074 18.8054 34.8068 18.806 34.8062C18.9616 34.6798 19.1444 34.5953 19.3395 34.5584C19.344 34.5578 19.3486 34.5572 19.3532 34.5565C19.3868 34.5504 19.4209 34.5456 19.4551 34.5425C19.4688 34.5413 19.4826 34.5413 19.4966 34.5404C19.5247 34.5388 19.5525 34.537 19.5808 34.5373C19.9083 34.5419 20.2132 34.6756 20.439 34.9142C20.4668 34.9435 20.4927 34.974 20.5165 35.0055C20.8772 35.477 20.8287 36.1773 20.381 36.6253L19.4585 37.5479C18.9894 38.0169 18.2262 38.0166 17.7571 37.5476ZM32.3888 28.7942C31.9197 29.2636 31.1565 29.2633 30.6874 28.7942C30.6703 28.7771 30.6523 28.7613 30.634 28.7463L25.5907 23.6499C25.2858 23.342 24.7893 23.3395 24.4814 23.6444C24.1734 23.9489 24.171 24.4455 24.4756 24.7534L29.5735 29.9045C29.5741 29.9051 29.5747 29.9057 29.5753 29.9063C30.0444 30.3753 30.0444 31.1389 29.5753 31.6079C29.348 31.8353 29.0459 31.9604 28.7245 31.9604C28.4029 31.9604 28.1007 31.8353 27.8737 31.6079L24.4634 28.1622C24.1588 27.8543 23.6623 27.8518 23.3543 28.1564C23.0464 28.4613 23.044 28.9578 23.3485 29.2657L26.7067 32.6587C26.7238 32.68 26.7421 32.7005 26.7616 32.72C27.2307 33.1891 27.2307 33.9526 26.7616 34.4217C26.2923 34.8907 25.5287 34.8904 25.0597 34.4214L23.1984 32.5406C22.8935 32.2326 22.397 32.2299 22.0891 32.5348C21.7812 32.8393 21.7787 33.3358 22.0833 33.6438L23.8927 35.4718C23.9098 35.4931 23.9281 35.5139 23.9479 35.5334C24.417 36.0025 24.417 36.766 23.9479 37.2351C23.4789 37.7044 22.7156 37.7041 22.2466 37.2351C22.1925 37.1811 22.1291 37.1396 22.0686 37.0932C22.0174 37.0541 22.0039 37.0269 22.0296 36.9647C22.0555 36.9015 22.0943 36.8445 22.1202 36.781C22.1489 36.7102 22.1721 36.6372 22.1947 36.564C22.3149 36.1764 22.3503 35.7596 22.2963 35.3573C22.1925 34.5855 21.768 33.8891 21.1247 33.4485C20.7771 33.2107 20.3749 33.0548 19.958 32.9962C20.1601 32.1051 19.9175 31.1389 19.2864 30.4721C18.7669 29.9234 18.0653 29.6155 17.3106 29.6051C17.2832 29.6048 17.2557 29.6048 17.2279 29.6051C17.2447 28.8849 16.9829 28.1692 16.4864 27.6446C15.9667 27.0959 15.2651 26.788 14.5107 26.7776C14.2864 26.7746 14.0599 26.7984 13.8414 26.8487C13.748 26.199 13.4206 25.5978 12.9247 25.1678C12.4318 24.7412 11.812 24.5044 11.1519 24.4952C10.457 24.4851 9.77433 24.7415 9.25828 25.2075L6.22636 21.1221L13.4798 12.2854L15.7915 12.9178L12.7724 18.2452C12.4074 18.8894 12.3152 19.6371 12.5127 20.3506C12.7101 21.0644 13.1734 21.6583 13.8176 22.0233C13.8579 22.0462 13.8985 22.0678 13.9397 22.0886C13.9427 22.0901 13.9458 22.0917 13.9491 22.0932C14.0575 22.1472 14.1689 22.1936 14.2818 22.2326C14.8076 22.4148 15.3755 22.4347 15.9233 22.2833C16.6368 22.0859 17.2307 21.6223 17.5957 20.9784L19.5577 17.5162L23.0608 17.7646L32.3891 27.0926C32.8578 27.5619 32.8578 28.3252 32.3888 28.7942ZM32.7138 25.1989L23.9629 16.4483C23.9464 16.4316 23.929 16.4157 23.911 16.4007C23.7849 16.2958 23.6287 16.2323 23.4639 16.2207L19.1747 15.9164C18.878 15.896 18.5832 16.0538 18.4367 16.3122L16.2309 20.2051C16.0725 20.4846 15.8147 20.6857 15.5049 20.7715C15.1955 20.8572 14.8708 20.8169 14.5909 20.6585C14.3114 20.5002 14.1103 20.2423 14.0245 19.9325C13.9388 19.6228 13.9787 19.2981 14.1374 19.0185L17.0821 13.8217L18.2753 13.4784C18.2832 13.4759 18.2909 13.4729 18.2988 13.4704L22.7522 12.1844H28.1331L34.8506 20.7239L32.7138 25.1989ZM35.8781 19.4928L29.666 11.5915L32.8365 9.57518L38.6412 17.1152L35.8781 19.4928Z" fill="#2E8B57"/>
<path d="M24.733 9.143C24.9338 9.143 25.1346 9.0664 25.2878 8.9132L30.6455 3.55554C30.9519 3.24914 30.9519 2.75262 30.6455 2.44623C30.3391 2.13983 29.8426 2.13983 29.5362 2.44623L24.1785 7.80389C23.8721 8.11029 23.8721 8.60681 24.1785 8.9132C24.3317 9.0664 24.5325 9.143 24.733 9.143Z" fill="#2E8B57"/>
<path d="M15.7122 8.9132C15.8654 9.0664 16.0662 9.143 16.267 9.143C16.4675 9.143 16.6683 9.0664 16.8215 8.9132C17.1279 8.60681 17.1279 8.11029 16.8215 7.80389L11.4639 2.44623C11.1575 2.13983 10.6609 2.13983 10.3546 2.44623C10.0482 2.75262 10.0482 3.24914 10.3546 3.55554L15.7122 8.9132Z" fill="#2E8B57"/>
<path d="M20.5001 9.143C20.9332 9.143 21.2844 8.79174 21.2844 8.3587V3.9248C21.2844 3.49176 20.9332 3.1405 20.5001 3.1405C20.0671 3.1405 19.7158 3.49176 19.7158 3.9248V8.3587C19.7158 8.79174 20.0671 9.143 20.5001 9.143Z" fill="#2E8B57"/>
<path d="M19.7762 1.08215C19.9007 1.38396 20.2111 1.58202 20.5385 1.56493C20.862 1.54815 21.1461 1.32964 21.2462 1.02172C21.3466 0.711357 21.2374 0.357659 20.9774 0.159905C20.7122 -0.0421211 20.3423 -0.0534126 20.0649 0.129998C19.7555 0.334466 19.6355 0.74157 19.7762 1.08215Z" fill="#2E8B57"/>
</svg>
