<svg width="37" height="49" viewBox="0 0 37 49" fill="none" xmlns="http://www.w3.org/2000/svg">
<path d="M18.7089 45.9318L21.3726 48.9939H0V6.12424H10.6551C10.6551 5.27897 10.7938 4.48952 11.0713 3.75588C11.3488 3.02225 11.7303 2.36836 12.2159 1.79421C12.7015 1.22006 13.2634 0.781479 13.9016 0.478456C14.5398 0.175434 15.2335 0.0159485 15.9827 0C16.718 0 17.4047 0.159485 18.0429 0.478456C18.6811 0.797427 19.2499 1.23601 19.7494 1.79421C20.2489 2.35241 20.6304 2.99833 20.894 3.73196C21.1576 4.46559 21.2963 5.26302 21.3102 6.12424H31.9653V30.693L29.3015 33.7551V9.18636H26.6378V15.3106H5.32755V9.18636H2.66378V45.9318H18.7089ZM7.99133 9.18636V12.2485H23.974V9.18636H18.6464V6.12424C18.6464 5.69363 18.5771 5.29492 18.4383 4.9281C18.2996 4.56128 18.1123 4.24231 17.8764 3.97119C17.6406 3.70006 17.3562 3.47678 17.0232 3.30135C16.6902 3.12591 16.3434 3.04617 15.9827 3.06212C15.6081 3.06212 15.2612 3.14186 14.9421 3.30135C14.623 3.46083 14.3455 3.67614 14.1097 3.94726C13.8738 4.21839 13.6796 4.54533 13.527 4.9281C13.3744 5.31086 13.305 5.70958 13.3189 6.12424V9.18636H7.99133ZM36.8975 34.7599L25.3059 48.1088L19.7078 41.6496L21.5808 39.4966L25.3059 43.7548L35.0245 32.6068L36.8975 34.7599Z" fill="#2E8B57"/>
</svg>
