<svg width="39" height="43" viewBox="0 0 39 43" fill="none" xmlns="http://www.w3.org/2000/svg">
<path d="M21.9456 20.6456C26.9751 20.6456 31.0523 16.2477 31.0523 10.8228C31.0523 5.3978 26.9751 1 21.9456 1C16.9161 1 12.8389 5.3978 12.8389 10.8228C12.8389 16.2477 16.9161 20.6456 21.9456 20.6456Z" stroke="#2E8B57" stroke-width="2" stroke-linecap="round" stroke-linejoin="round"/>
<path d="M24.1045 8.37549C24.1045 8.37549 23.856 6.36434 21.9692 6.36784C20.2519 6.3706 19.3484 6.93361 19.3057 8.44974C19.2424 10.7026 21.9732 10.8532 21.9732 10.8532C21.9732 10.8532 24.7317 11.22 24.7882 13.5405C24.8338 15.4103 23.9151 16.0563 22.4341 16.0444C19.094 16.0176 19.233 13.8508 19.233 13.8508" stroke="#2E8B57" stroke-width="2" stroke-linecap="round"/>
<path d="M21.8262 4.44798C21.8455 6.31894 21.8455 6.31894 21.8455 6.31894" stroke="#2E8B57" stroke-width="2" stroke-linecap="round"/>
<path d="M21.8779 16.4026L21.9037 17.9276" stroke="#2E8B57" stroke-width="2" stroke-linecap="round"/>
<path d="M8.56532 26.2798H1.94567C1.42339 26.2798 1 26.7563 1 27.3442V40.9353C1 41.5231 1.42339 41.9996 1.94567 41.9996H8.56532C9.0876 41.9996 9.51099 41.5231 9.51099 40.9353V27.3442C9.51099 26.7563 9.0876 26.2798 8.56532 26.2798Z" stroke="#2E8B57" stroke-width="2" stroke-linecap="round" stroke-linejoin="round"/>
<path d="M14.8523 25.3794C17.4691 25.3757 19.1689 28.1222 22.745 28.1222C22.745 28.1222 25.3633 27.8762 26.1639 28.8181C26.4461 29.1501 26.3283 30.1841 26.3283 30.1841C25.6817 33.2338 22.744 32.9082 20.1413 33.3579C20.1413 33.3579 23.3253 33.9291 26.6865 31.6445L30.0541 29.3556C30.0541 29.3556 34.4956 26.2599 35.487 26.3069C35.487 26.3069 36.7109 26.1122 36.9883 26.5904C37.4651 27.4121 37.4905 28.4426 36.3473 29.4447C35.204 30.4469 25.2426 38.6669 22.4904 38.7658L10.8878 38.8067C10.2228 38.8095 9.6875 38.2042 9.6875 37.4558V29.4731C11.1268 26.6942 11.8705 25.4601 14.8523 25.3794V25.3794Z" stroke="#2E8B57" stroke-width="2" stroke-linecap="round" stroke-linejoin="round"/>
</svg>
