<svg width="41" height="40" viewBox="0 0 41 40" fill="none" xmlns="http://www.w3.org/2000/svg">
<path d="M17.9194 15.4837C18.0905 15.4837 18.2546 15.4158 18.3756 15.2948C18.4965 15.1738 18.5645 15.0097 18.5645 14.8386C18.5645 14.6675 18.4965 14.5034 18.3756 14.3824C18.2546 14.2614 18.0905 14.1934 17.9194 14.1934H16.629C16.4579 14.1934 16.2938 14.2614 16.1728 14.3824C16.0519 14.5034 15.9839 14.6675 15.9839 14.8386C15.9839 15.0097 16.0519 15.1738 16.1728 15.2948C16.2938 15.4158 16.4579 15.4837 16.629 15.4837H17.9194Z" fill="#2E8B57"/>
<path d="M23.0807 15.4837H24.371C24.5421 15.4837 24.7062 15.4158 24.8272 15.2948C24.9482 15.1738 25.0162 15.0097 25.0162 14.8386C25.0162 14.6675 24.9482 14.5034 24.8272 14.3824C24.7062 14.2614 24.5421 14.1934 24.371 14.1934H23.0807C22.9096 14.1934 22.7455 14.2614 22.6245 14.3824C22.5035 14.5034 22.4355 14.6675 22.4355 14.8386C22.4355 15.0097 22.5035 15.1738 22.6245 15.2948C22.7455 15.4158 22.9096 15.4837 23.0807 15.4837Z" fill="#2E8B57"/>
<path d="M36.629 27.0966C37.6553 27.0955 38.6393 26.6873 39.365 25.9616C40.0907 25.2359 40.4989 24.2519 40.5 23.2256C40.5022 22.6939 40.3938 22.1675 40.1816 21.6799C39.9695 21.1924 39.6583 20.7542 39.2677 20.3934C40.0572 16.0539 40.0556 11.5692 39.2613 6.70879C39.6537 6.34789 39.9666 5.9091 40.1799 5.42046C40.3931 4.93182 40.5022 4.40406 40.5 3.8709C40.4999 3.09025 40.2638 2.32786 39.8226 1.68378C39.3815 1.03971 38.756 0.544043 38.0281 0.26183C37.3002 -0.0203844 36.5041 -0.0759605 35.744 0.102394C34.984 0.280749 34.2957 0.684702 33.7694 1.26124C24.9421 0.443507 16.0581 0.443507 7.23083 1.26124C6.70449 0.684702 6.01616 0.280749 5.25615 0.102394C4.49614 -0.0759605 3.69996 -0.0203844 2.9721 0.26183C2.24424 0.544043 1.6187 1.03971 1.17757 1.68378C0.736441 2.32786 0.500331 3.09025 0.500225 3.8709C0.498013 4.39977 0.605192 4.92338 0.81503 5.40883C1.02487 5.89429 1.33283 6.33111 1.71957 6.69185C0.938126 10.3047 0.946997 14.6773 1.74618 20.3805C1.17369 20.9086 0.773847 21.5972 0.598903 22.3562C0.423959 23.1152 0.482056 23.9093 0.765601 24.6348C1.04915 25.3602 1.54495 25.9833 2.18821 26.4225C2.83147 26.8617 3.59227 27.0966 4.37117 27.0966C4.90962 27.0986 5.44249 26.9874 5.93515 26.7701C6.42782 26.5528 6.86927 26.2343 7.23083 25.8353C8.30663 25.9353 9.387 26.0232 10.4719 26.099L10.1381 26.1772C7.76066 26.7369 6.08648 28.4796 5.73245 30.6981C4.18649 30.7764 2.64322 30.8667 1.10264 30.9691C0.939327 30.98 0.786239 31.0525 0.674385 31.172C0.562532 31.2914 0.500275 31.449 0.500225 31.6127V39.3545C0.500225 39.5257 0.568197 39.6897 0.689187 39.8107C0.810178 39.9317 0.974276 39.9997 1.14538 39.9997C1.31649 39.9997 1.48059 39.9317 1.60158 39.8107C1.72257 39.6897 1.79054 39.5257 1.79054 39.3545V32.2167C14.2507 31.4151 26.7495 31.4151 39.2097 32.2167V39.3545C39.2097 39.5257 39.2776 39.6897 39.3986 39.8107C39.5196 39.9317 39.6837 39.9997 39.8548 39.9997C40.0259 39.9997 40.19 39.9317 40.311 39.8107C40.432 39.6897 40.5 39.5257 40.5 39.3545V31.6127C40.4999 31.449 40.4377 31.2914 40.3258 31.172C40.214 31.0525 40.0609 30.98 39.8976 30.9691C38.3572 30.8659 36.814 30.7756 35.2677 30.6981C34.9137 28.4796 33.2395 26.7369 30.8621 26.1772L30.5283 26.099C31.6113 26.0232 32.6917 25.9353 33.7694 25.8353C34.1309 26.2343 34.5724 26.5528 35.065 26.7701C35.5577 26.9874 36.0906 27.0986 36.629 27.0966ZM30.567 27.4337C32.3186 27.8457 33.579 29.0659 33.9411 30.6336C25.0009 30.2232 15.9993 30.2232 7.05905 30.6336C7.42115 29.0659 8.68162 27.8457 10.4332 27.4337L15.0509 26.3466C15.6517 26.37 16.2485 26.3893 16.834 26.4038C17.0937 27.1701 17.587 27.8358 18.2446 28.3072C18.9022 28.7787 19.691 29.0322 20.5001 29.0322C21.3092 29.0322 22.098 28.7787 22.7556 28.3072C23.4132 27.8358 23.9065 27.1701 24.1662 26.4038C24.7517 26.3893 25.3493 26.37 25.9493 26.3466L30.567 27.4337ZM12.7582 11.6128V9.67732C12.76 8.13791 13.3723 6.66205 14.4608 5.57352C15.5494 4.48499 17.0252 3.87268 18.5646 3.8709H22.4356C23.975 3.87268 25.4508 4.48499 26.5394 5.57352C27.6279 6.66205 28.2402 8.13791 28.242 9.67732V11.6128H27.5968V9.89909C27.6369 9.80314 27.6543 9.69925 27.6478 9.59547C27.6412 9.49169 27.6108 9.39083 27.5589 9.30071C27.546 9.27974 27.2388 8.78942 26.6509 9.08861C26.6073 9.11119 26.5444 9.14426 26.4646 9.18781C26.3162 9.26764 26.1057 9.38377 25.8541 9.52248C25.2614 9.8499 23.8646 10.6209 22.846 11.1313L23.0477 10.5265C23.0856 10.4128 23.0911 10.2908 23.0635 10.1742C23.036 10.0576 22.9766 9.95094 22.8918 9.86621C22.8071 9.78148 22.7004 9.72202 22.5838 9.69449C22.4672 9.66697 22.3452 9.67247 22.2315 9.71038C22.1743 9.72974 16.4945 11.6128 14.0485 11.6128H12.7582ZM13.4034 12.9031V16.774H12.7582C12.5872 16.7738 12.4232 16.7058 12.3023 16.5848C12.1813 16.4639 12.1133 16.2999 12.1131 16.1289V13.5483C12.1133 13.3772 12.1813 13.2133 12.3023 13.0923C12.4232 12.9714 12.5872 12.9033 12.7582 12.9031H13.4034ZM28.8871 13.5483V16.1289C28.8869 16.2999 28.8189 16.4639 28.6979 16.5848C28.577 16.7058 28.413 16.7738 28.242 16.774H27.5968V12.9031H28.242C28.413 12.9033 28.577 12.9714 28.6979 13.0923C28.8189 13.2133 28.8869 13.3772 28.8871 13.5483ZM14.6937 12.8725C16.7017 12.7007 19.742 11.8362 21.4227 11.3209L21.1783 12.0539C21.146 12.1509 21.1372 12.2542 21.1526 12.3552C21.168 12.4563 21.2072 12.5523 21.267 12.6352C21.3268 12.7181 21.4054 12.7857 21.4964 12.8322C21.5874 12.8788 21.6882 12.9031 21.7904 12.9031C22.1961 12.9031 22.9831 12.5773 26.3065 10.7467V17.4192C26.3065 18.9592 25.6948 20.436 24.6059 21.525C23.5169 22.6139 22.0401 23.2256 20.5001 23.2256C18.9601 23.2256 17.4833 22.6139 16.3943 21.525C15.3054 20.436 14.6937 18.9592 14.6937 17.4192V12.8725ZM23.0807 24.0305V25.1611C23.0808 25.3251 23.0652 25.4888 23.034 25.6498C23.0338 25.6512 23.0335 25.6525 23.0331 25.6538V25.6546C22.9184 26.2427 22.6027 26.7726 22.14 27.1533C21.6773 27.5341 21.0966 27.7419 20.4974 27.7413C19.8982 27.7406 19.3179 27.5314 18.8561 27.1497C18.3942 26.7679 18.0796 26.2373 17.9662 25.649C17.935 25.4882 17.9193 25.3248 17.9195 25.1611V24.0305C19.579 24.6778 21.4212 24.6778 23.0807 24.0305ZM26.0734 25.0506L24.371 24.6498V23.3643C25.2691 22.7793 26.0231 21.9986 26.5766 21.0807C27.1301 20.1629 27.4687 19.1317 27.567 18.0644H28.242C28.7551 18.0637 29.247 17.8595 29.6098 17.4967C29.9726 17.1339 30.1768 16.642 30.1775 16.1289V13.5483C30.1776 13.2761 30.1201 13.0071 30.009 12.7587C29.8978 12.5104 29.7353 12.2883 29.5323 12.1071V9.67732C29.5302 7.7958 28.7818 5.99196 27.4514 4.66153C26.1209 3.3311 24.3171 2.58272 22.4356 2.58059H18.5646C16.6831 2.58272 14.8793 3.3311 13.5488 4.66153C12.2184 5.99196 11.47 7.7958 11.4679 9.67732V12.1071C11.2649 12.2883 11.1024 12.5104 10.9912 12.7587C10.8801 13.0071 10.8226 13.2761 10.8227 13.5483V16.1289C10.8234 16.642 11.0276 17.1339 11.3904 17.4967C11.7532 17.8595 12.2451 18.0637 12.7582 18.0644H13.4332C13.5315 19.1317 13.8701 20.1629 14.4236 21.0807C14.9771 21.9986 15.7311 22.7793 16.6292 23.3643V24.6498L14.9267 25.0506C12.2961 24.9474 9.63404 24.7692 7.01309 24.5192C6.90326 24.5085 6.79252 24.5262 6.69154 24.5707C6.59056 24.6152 6.50272 24.6849 6.43648 24.7732C6.21464 25.069 5.93183 25.3136 5.6072 25.4906C5.28258 25.6676 4.92371 25.7727 4.55491 25.7989C4.18611 25.8252 3.81598 25.7718 3.46959 25.6425C3.1232 25.5132 2.80863 25.311 2.54719 25.0496C2.28575 24.7882 2.08355 24.4736 1.95426 24.1272C1.82497 23.7808 1.77163 23.4107 1.79784 23.0419C1.82405 22.6731 1.9292 22.3142 2.10617 21.9896C2.28315 21.665 2.52781 21.3821 2.8236 21.1603C2.91603 21.0909 2.98808 20.9979 3.03221 20.891C3.07634 20.7842 3.09091 20.6675 3.0744 20.5531C2.21876 14.6321 2.21554 10.1983 3.06392 6.59992C3.09283 6.4779 3.08549 6.3501 3.0428 6.2322C3.00011 6.1143 2.92392 6.01143 2.8236 5.93621C2.52781 5.71437 2.28315 5.43157 2.10617 5.10694C1.9292 4.78231 1.82405 4.42345 1.79784 4.05465C1.77163 3.68585 1.82497 3.31572 1.95426 2.96933C2.08355 2.62294 2.28575 2.30837 2.54719 2.04693C2.80863 1.78549 3.1232 1.58328 3.46959 1.45399C3.81598 1.32471 4.18611 1.27136 4.55491 1.29757C4.92371 1.32378 5.28258 1.42894 5.6072 1.60591C5.93183 1.78288 6.21464 2.02755 6.43648 2.32333C6.50272 2.41159 6.59056 2.48131 6.69154 2.5258C6.79252 2.57029 6.90326 2.58804 7.01309 2.57736C15.9842 1.72495 25.016 1.72495 33.9871 2.57736C34.0969 2.58804 34.2077 2.57029 34.3087 2.5258C34.4096 2.48131 34.4975 2.41159 34.5637 2.32333C34.7856 2.02755 35.0684 1.78288 35.393 1.60591C35.7176 1.42894 36.0765 1.32378 36.4453 1.29757C36.8141 1.27136 37.1842 1.32471 37.5306 1.45399C37.877 1.58328 38.1916 1.78549 38.453 2.04693C38.7144 2.30837 38.9166 2.62294 39.0459 2.96933C39.1752 3.31572 39.2286 3.68585 39.2024 4.05465C39.1761 4.42345 39.071 4.78231 38.894 5.10694C38.717 5.43157 38.4724 5.71437 38.1766 5.93621C38.0819 6.00748 38.0087 6.1034 37.9649 6.21349C37.9211 6.32358 37.9084 6.44359 37.9282 6.5604C38.7798 11.5467 38.7806 16.1136 37.9306 20.5232C37.908 20.6418 37.919 20.7643 37.9625 20.8769C38.006 20.9895 38.0802 21.0877 38.1766 21.1603C38.4724 21.3821 38.717 21.665 38.894 21.9896C39.071 22.3142 39.1761 22.6731 39.2024 23.0419C39.2286 23.4107 39.1752 23.7808 39.0459 24.1272C38.9166 24.4736 38.7144 24.7882 38.453 25.0496C38.1916 25.311 37.877 25.5132 37.5306 25.6425C37.1842 25.7718 36.8141 25.8252 36.4453 25.7989C36.0765 25.7727 35.7176 25.6676 35.393 25.4906C35.0684 25.3136 34.7856 25.069 34.5637 24.7732C34.4974 24.685 34.4096 24.6153 34.3086 24.5708C34.2076 24.5264 34.0969 24.5086 33.9871 24.5192C31.3662 24.7692 28.7041 24.9474 26.0734 25.0506Z" fill="#2E8B57"/>
<path d="M18.148 19.0819C18.5486 19.6481 19.4495 19.9998 20.5002 19.9998C21.5509 19.9998 22.4518 19.6481 22.8523 19.0819C22.9025 19.0127 22.9384 18.9344 22.958 18.8512C22.9776 18.7681 22.9806 18.682 22.9666 18.5977C22.9527 18.5135 22.9222 18.4328 22.8768 18.3605C22.8315 18.2881 22.7722 18.2255 22.7025 18.1762C22.6328 18.1269 22.5539 18.0919 22.4706 18.0733C22.3872 18.0547 22.301 18.0529 22.217 18.0679C22.1329 18.0828 22.0526 18.1144 21.9808 18.1606C21.909 18.2068 21.8471 18.2668 21.7987 18.3372C21.7162 18.4538 21.2745 18.7095 20.5003 18.7095C19.7261 18.7095 19.2843 18.4538 19.202 18.3372C19.1535 18.2668 19.0916 18.2068 19.0198 18.1606C18.948 18.1144 18.8678 18.0828 18.7837 18.0679C18.6996 18.0529 18.6134 18.0547 18.5301 18.0733C18.4467 18.0919 18.3679 18.1269 18.2982 18.1762C18.2284 18.2255 18.1692 18.2881 18.1239 18.3605C18.0785 18.4328 18.048 18.5135 18.034 18.5977C18.0201 18.682 18.023 18.7681 18.0426 18.8512C18.0623 18.9344 18.0982 19.0127 18.1483 19.0819H18.148Z" fill="#2E8B57"/>
</svg>
